<svg version="1.0" xmlns="http://www.w3.org/2000/svg"
 width="126.000000pt" height="177.000000pt" viewBox="0 0 126.000000 177.000000"
 preserveAspectRatio="xMidYMid meet">

<g transform="translate(0.000000,177.000000) scale(0.100000,-0.100000)"
fill="#000000" stroke="none">
<path d="M505 1661 c-38 -10 -93 -40 -175 -96 -78 -53 -100 -72 -100 -85 0
-18 40 -51 71 -57 21 -4 28 -10 24 -21 -16 -42 -27 -105 -22 -129 3 -18 -1
-36 -14 -52 -37 -46 -17 -96 51 -131 34 -18 70 -62 70 -87 0 -4 -25 -19 -56
-32 -71 -31 -142 -95 -179 -163 -40 -72 -48 -201 -17 -270 36 -82 95 -134 184
-162 14 -4 16 -10 9 -28 -6 -17 -25 -29 -68 -43 -78 -26 -110 -48 -130 -90
-12 -26 -14 -42 -7 -67 13 -45 44 -48 90 -9 40 36 77 39 164 16 78 -21 185
-19 254 5 69 24 183 97 226 146 17 20 41 56 53 80 12 26 28 44 38 44 24 0 80
25 111 49 65 52 77 195 24 300 -36 70 -105 138 -183 179 l-62 33 14 32 c21 51
28 121 17 174 -9 39 -8 58 4 94 17 49 13 102 -12 153 -24 47 -84 104 -123 117
-19 6 -50 29 -70 49 -49 52 -112 69 -186 51z m121 -47 c32 -15 38 -23 32 -41
-2 -4 -37 -7 -78 -8 -85 -1 -118 -14 -185 -76 -36 -33 -47 -38 -73 -33 -35 7
-66 34 -39 34 8 0 49 25 90 55 114 84 183 102 253 69z m92 -86 c17 -17 15 -73
-4 -89 -14 -11 -19 -10 -36 11 -34 42 3 115 40 78z m-90 -32 c-1 -19 7 -47 16
-62 10 -14 14 -29 9 -33 -5 -3 -38 -27 -74 -53 -89 -64 -156 -98 -194 -98 -53
0 -61 55 -19 138 42 84 128 141 216 142 l47 0 -1 -34z m185 -13 c34 -36 57
-93 57 -140 l0 -37 -32 31 c-18 17 -48 38 -65 47 -37 19 -38 23 -18 50 8 11
15 32 15 48 0 35 9 35 43 1z m-61 -135 c64 -34 74 -47 94 -123 21 -77 17 -125
-13 -186 -23 -44 -37 -58 -82 -81 -126 -65 -274 -12 -327 117 -14 33 -24 45
-40 45 -28 0 -74 37 -74 60 0 29 24 41 67 34 49 -7 121 26 233 110 41 30 77
55 79 56 2 0 30 -14 63 -32z m-187 -448 c65 -18 155 -8 209 24 55 32 64 32
127 0 120 -60 199 -174 199 -285 0 -102 -63 -169 -159 -169 -43 0 -148 31
-199 58 l-33 18 53 43 c72 60 128 83 186 79 51 -3 68 11 33 27 -13 6 -34 34
-48 63 -22 48 -40 62 -56 46 -3 -4 3 -24 13 -45 24 -47 25 -45 -1 -52 -12 -3
-40 5 -66 19 -56 29 -87 30 -154 4 -48 -18 -54 -18 -82 -3 -24 12 -47 14 -99
9 -61 -6 -68 -4 -68 12 0 19 -18 42 -33 42 -5 0 -7 -15 -4 -32 4 -28 -1 -38
-34 -69 -22 -20 -39 -41 -39 -48 0 -7 11 -23 25 -36 34 -35 81 -32 175 10 43
19 83 35 91 35 24 0 59 -43 59 -72 0 -60 -134 -152 -238 -165 -70 -8 -129 16
-181 72 -87 95 -89 225 -4 347 33 49 83 86 151 114 l55 22 38 -28 c21 -15 59
-33 84 -40z m14 -206 c6 -5 5 -6 -81 -43 -82 -35 -131 -38 -136 -8 -7 38 181
82 217 51z m234 -4 c9 -10 9 -14 -1 -17 -7 -3 -34 -22 -61 -43 l-49 -39 -12
30 c-7 16 -21 36 -32 43 -21 15 -16 22 30 37 35 11 111 5 125 -11z m-43 -215
c47 -19 94 -35 106 -35 11 0 23 -3 27 -6 10 -11 -29 -77 -67 -114 -32 -30 -44
-35 -99 -38 -72 -4 -149 20 -217 69 l-42 31 59 28 c32 15 76 44 98 63 22 20
42 36 45 37 3 0 44 -16 90 -35z m-299 -134 c48 -44 120 -80 191 -94 l63 -13
-44 -23 c-62 -32 -174 -39 -276 -16 -93 20 -151 16 -194 -14 -29 -21 -31 -21
-31 -4 0 10 6 25 13 34 18 24 79 59 102 59 32 0 86 39 98 70 14 38 37 38 78 1z"/>
<path d="M565 1240 c-11 -18 5 -50 26 -50 16 0 20 6 17 27 -3 28 -31 43 -43
23z"/>
<path d="M735 1240 c-3 -6 -3 -19 0 -31 10 -29 39 -20 43 14 3 21 -1 27 -17
27 -11 0 -23 -5 -26 -10z"/>
<path d="M587 1124 c-27 -27 32 -94 84 -94 42 0 88 26 100 57 13 35 0 46 -40
32 -30 -11 -66 -9 -116 6 -11 3 -24 3 -28 -1z"/>
</g>
</svg>
